<svg width="25" height="24" viewBox="0 0 25 24" fill="none" xmlns="http://www.w3.org/2000/svg">
<g clip-path="url(#clip0_160_258)">
<path d="M24.2139 12.2245C24.2139 11.2413 24.1342 10.5237 23.9615 9.77963H12.7335V14.2176H19.3241C19.1913 15.3205 18.4737 16.9815 16.8792 18.0976L16.8568 18.2461L20.4069 20.9963L20.6529 21.0209C22.9117 18.9347 24.2139 15.8653 24.2139 12.2245Z" fill="#4285F4"/>
<path d="M12.7335 23.9176C15.9623 23.9176 18.673 22.8545 20.6529 21.0209L16.8792 18.0976C15.8693 18.8018 14.514 19.2934 12.7335 19.2934C9.57109 19.2934 6.88703 17.2074 5.93023 14.324L5.78999 14.3359L2.09857 17.1927L2.05029 17.3269C4.01683 21.2334 8.05625 23.9176 12.7335 23.9176Z" fill="#34A853"/>
<path d="M5.93029 14.324C5.67783 13.5799 5.53173 12.7826 5.53173 11.9588C5.53173 11.1349 5.67783 10.3377 5.91701 9.5936L5.91032 9.43513L2.17264 6.53241L2.05035 6.59058C1.23985 8.21168 0.77478 10.0321 0.77478 11.9588C0.77478 13.8855 1.23985 15.7058 2.05035 17.3269L5.93029 14.324Z" fill="#FBBC05"/>
<path d="M12.7335 4.62403C14.9791 4.62403 16.4938 5.59402 17.3575 6.40461L20.7326 3.10928C18.6598 1.1826 15.9623 0 12.7335 0C8.05625 0 4.01683 2.68406 2.05029 6.59056L5.91695 9.59359C6.88703 6.7102 9.57109 4.62403 12.7335 4.62403Z" fill="#EB4335"/>
</g>
<defs>
<clipPath id="clip0_160_258">
<rect width="23.4504" height="24" fill="white" transform="translate(0.77478)"/>
</clipPath>
</defs>
</svg>
